<!DOCTYPE svg PUBLIC "-//W3C//DTD SVG 1.1//EN" "http://www.w3.org/Graphics/SVG/1.1/DTD/svg11.dtd">
<!-- Uploaded to: SVG Repo, www.svgrepo.com, Transformed by: SVG Repo Mixer Tools -->
<svg fill="#333" height="64px" width="64px" version="1.1" id="Layer_1" xmlns="http://www.w3.org/2000/svg" xmlns:xlink="http://www.w3.org/1999/xlink" viewBox="0 0 511.999 511.999" xml:space="preserve" stroke="#333">
<g id="SVGRepo_bgCarrier" stroke-width="0"/>
<g id="SVGRepo_tracerCarrier" stroke-linecap="round" stroke-linejoin="round"/>
<g id="SVGRepo_iconCarrier"> <g> <g> <path d="M508.773,63.728c5.233-6.795,3.967-16.546-2.826-21.779c-6.792-5.233-16.543-3.969-21.778,2.825l-86.356,112.11 c-15.381,0-24.269,0-49.105,0l-53.533-17.606l-33.828-54.699c-6.46-10.444-23.139-10.924-31.042,1.948l-31.72,51.65 l-47.362,16.353c-1.641-0.26-23.551-0.279-35.197-0.27c-4.759,0.003-9.541,0.438-14.224,1.281l-39.58,7.127l-38.271-20.842 c-7.857-4.278-17.696-1.379-21.974,6.48c-4.278,7.858-1.378,17.696,6.48,21.974l43.149,23.498 c3.08,1.677,6.721,2.356,10.359,1.761l27.611-4.511L62.942,325.57c-0.496,2.507,0.153,5.106,1.774,7.082 c1.622,1.976,4.043,3.122,6.6,3.122c2.529,0,5.457,0,8.689,0l-33.056,113.92c-2.839,9.781,2.789,20.009,12.57,22.848 c9.771,2.838,20.008-2.783,22.848-12.57l36.039-124.198c5.653,0,11.412,0,17.132,0v119.064c0,10.184,8.255,18.44,18.44,18.44 s18.44-8.255,18.44-18.44V335.772c6.906,0,12.966,0,17.67,0c2.554,0,4.975-1.153,6.596-3.127c1.621-1.974,2.273-4.57,1.777-7.076 l-28.36-143.282l44.54-15.378c3.545-1.223,6.555-3.639,8.517-6.835l24.096-39.237l24.485,39.592 c1.923,3.109,4.881,5.441,8.356,6.584l54.849,18.038l0.008,269.591c0,10.291,8.342,18.633,18.634,18.633 s18.633-8.342,18.633-18.633V305.698h8.046v148.945c0,10.291,8.342,18.634,18.633,18.634s18.633-8.342,18.633-18.634 c0-261.936-0.338-93.591-0.338-272.107C418.096,181.492,411.001,190.657,508.773,63.728z"/> </g> </g> <g> <g> <circle cx="376.24" cy="114.439" r="32.183"/> </g> </g> <g> <g> <circle cx="130.703" cy="110.589" r="31.847"/> </g> </g> </g>
</svg>